<mxfile host="app.diagrams.net" agent="Mozilla/5.0 (Windows NT 10.0; Win64; x64) AppleWebKit/537.36 (KHTML, like Gecko) Chrome/128.0.0.0 Safari/537.36 OPR/114.0.0.0" version="24.8.6">
  <diagram name="Page-1" id="PlWj3B3dQWKrGn9RvDhj">
    <mxGraphModel dx="1114" dy="630" grid="1" gridSize="10" guides="1" tooltips="1" connect="1" arrows="1" fold="1" page="1" pageScale="1" pageWidth="3840" pageHeight="2160" background="none" math="0" shadow="0">
      <root>
        <mxCell id="0" />
        <mxCell id="1" parent="0" />
        <mxCell id="kZ3E673snCELfS5Q31nj-2" value="Entity" style="shape=hexagon;perimeter=hexagonPerimeter2;whiteSpace=wrap;html=1;fixedSize=1;labelBackgroundColor=none;rounded=0;fillColor=#F2CC8F;strokeColor=#E07A5F;fontColor=#393C56;" parent="1" vertex="1">
          <mxGeometry x="920" y="80" width="80" height="80" as="geometry" />
        </mxCell>
        <mxCell id="kZ3E673snCELfS5Q31nj-12" value="Component" style="rhombus;whiteSpace=wrap;html=1;labelBackgroundColor=none;rounded=0;fillColor=#F2CC8F;strokeColor=#E07A5F;fontColor=#393C56;" parent="1" vertex="1">
          <mxGeometry x="1480" y="80" width="80" height="80" as="geometry" />
        </mxCell>
        <mxCell id="kZ3E673snCELfS5Q31nj-23" value="Window" style="ellipse;shape=cloud;whiteSpace=wrap;html=1;labelBackgroundColor=none;rounded=0;fillColor=#F2CC8F;strokeColor=#E07A5F;fontColor=#393C56;" parent="1" vertex="1">
          <mxGeometry x="40" y="40" width="120" height="80" as="geometry" />
        </mxCell>
        <mxCell id="kZ3E673snCELfS5Q31nj-25" value="Tools" style="ellipse;shape=cloud;whiteSpace=wrap;html=1;labelBackgroundColor=none;rounded=0;fillColor=#F2CC8F;strokeColor=#E07A5F;fontColor=#393C56;" parent="1" vertex="1">
          <mxGeometry x="10" y="260" width="120" height="80" as="geometry" />
        </mxCell>
        <mxCell id="kZ3E673snCELfS5Q31nj-31" value="Draw" style="shape=delay;whiteSpace=wrap;html=1;labelBackgroundColor=none;rounded=0;fillColor=#F2CC8F;strokeColor=#E07A5F;fontColor=#393C56;" parent="1" vertex="1">
          <mxGeometry x="40" y="160" width="80" height="40" as="geometry" />
        </mxCell>
        <mxCell id="kZ3E673snCELfS5Q31nj-32" style="edgeStyle=orthogonalEdgeStyle;rounded=0;orthogonalLoop=1;jettySize=auto;html=1;exitX=0.334;exitY=0.859;exitDx=0;exitDy=0;exitPerimeter=0;entryX=0.5;entryY=0;entryDx=0;entryDy=0;labelBackgroundColor=none;fontColor=default;strokeColor=#E07A5F;" parent="1" source="kZ3E673snCELfS5Q31nj-23" target="kZ3E673snCELfS5Q31nj-31" edge="1">
          <mxGeometry relative="1" as="geometry" />
        </mxCell>
        <mxCell id="kZ3E673snCELfS5Q31nj-33" value="Rectangle" style="ellipse;shape=cloud;whiteSpace=wrap;html=1;labelBackgroundColor=none;rounded=0;fillColor=#F2CC8F;strokeColor=#E07A5F;fontColor=#393C56;" parent="1" vertex="1">
          <mxGeometry x="320" y="160" width="120" height="80" as="geometry" />
        </mxCell>
        <mxCell id="kZ3E673snCELfS5Q31nj-34" value="Text" style="ellipse;shape=cloud;whiteSpace=wrap;html=1;labelBackgroundColor=none;rounded=0;fillColor=#F2CC8F;strokeColor=#E07A5F;fontColor=#393C56;" parent="1" vertex="1">
          <mxGeometry x="480" y="160" width="120" height="80" as="geometry" />
        </mxCell>
        <mxCell id="kZ3E673snCELfS5Q31nj-35" value="Drawable" style="ellipse;shape=cloud;whiteSpace=wrap;html=1;labelBackgroundColor=none;rounded=0;fillColor=#F2CC8F;strokeColor=#E07A5F;fontColor=#393C56;" parent="1" vertex="1">
          <mxGeometry x="280" y="40" width="120" height="80" as="geometry" />
        </mxCell>
        <mxCell id="kZ3E673snCELfS5Q31nj-40" value="" style="shape=flexArrow;endArrow=classic;html=1;rounded=0;entryX=0.4;entryY=0.1;entryDx=0;entryDy=0;entryPerimeter=0;labelBackgroundColor=none;fontColor=default;strokeColor=#E07A5F;" parent="1" source="kZ3E673snCELfS5Q31nj-35" target="kZ3E673snCELfS5Q31nj-33" edge="1">
          <mxGeometry width="50" height="50" relative="1" as="geometry">
            <mxPoint x="490" y="240" as="sourcePoint" />
            <mxPoint x="540" y="190" as="targetPoint" />
          </mxGeometry>
        </mxCell>
        <mxCell id="kZ3E673snCELfS5Q31nj-41" value="" style="shape=flexArrow;endArrow=classic;html=1;rounded=0;exitX=0.8;exitY=0.8;exitDx=0;exitDy=0;exitPerimeter=0;labelBackgroundColor=none;fontColor=default;strokeColor=#E07A5F;" parent="1" source="kZ3E673snCELfS5Q31nj-35" target="kZ3E673snCELfS5Q31nj-34" edge="1">
          <mxGeometry width="50" height="50" relative="1" as="geometry">
            <mxPoint x="490" y="240" as="sourcePoint" />
            <mxPoint x="540" y="190" as="targetPoint" />
          </mxGeometry>
        </mxCell>
        <mxCell id="kZ3E673snCELfS5Q31nj-42" value="Drawable" style="rounded=0;whiteSpace=wrap;html=1;labelBackgroundColor=none;fillColor=#F2CC8F;strokeColor=#E07A5F;fontColor=#393C56;" parent="1" vertex="1">
          <mxGeometry x="280" y="40" width="370" height="235" as="geometry" />
        </mxCell>
        <mxCell id="kZ3E673snCELfS5Q31nj-49" value="" style="endArrow=none;html=1;edgeStyle=orthogonalEdgeStyle;rounded=0;exitX=0.5;exitY=0;exitDx=0;exitDy=0;entryX=0;entryY=0.5;entryDx=0;entryDy=0;labelBackgroundColor=none;fontColor=default;strokeColor=#E07A5F;" parent="1" source="kZ3E673snCELfS5Q31nj-12" target="wERcz5VRjjp3bPj3p1RH-53" edge="1">
          <mxGeometry relative="1" as="geometry">
            <mxPoint x="1510" y="60" as="sourcePoint" />
            <mxPoint x="1681.04" y="55.84000000000003" as="targetPoint" />
          </mxGeometry>
        </mxCell>
        <mxCell id="kZ3E673snCELfS5Q31nj-50" value="parent" style="edgeLabel;resizable=0;html=1;align=left;verticalAlign=bottom;labelBackgroundColor=none;rounded=0;fontColor=#393C56;" parent="kZ3E673snCELfS5Q31nj-49" connectable="0" vertex="1">
          <mxGeometry x="-1" relative="1" as="geometry" />
        </mxCell>
        <mxCell id="kZ3E673snCELfS5Q31nj-51" value="child" style="edgeLabel;resizable=0;html=1;align=right;verticalAlign=bottom;labelBackgroundColor=none;rounded=0;fontColor=#393C56;" parent="kZ3E673snCELfS5Q31nj-49" connectable="0" vertex="1">
          <mxGeometry x="1" relative="1" as="geometry">
            <mxPoint y="20" as="offset" />
          </mxGeometry>
        </mxCell>
        <mxCell id="kZ3E673snCELfS5Q31nj-60" value="State&lt;div&gt;Manager&lt;/div&gt;" style="ellipse;shape=cloud;whiteSpace=wrap;html=1;labelBackgroundColor=none;rounded=0;fillColor=#F2CC8F;strokeColor=#E07A5F;fontColor=#393C56;" parent="1" vertex="1">
          <mxGeometry x="760" y="240" width="120" height="80" as="geometry" />
        </mxCell>
        <mxCell id="kZ3E673snCELfS5Q31nj-62" value="State" style="rhombus;whiteSpace=wrap;html=1;labelBackgroundColor=none;rounded=0;fillColor=#F2CC8F;strokeColor=#E07A5F;fontColor=#393C56;" parent="1" vertex="1">
          <mxGeometry x="920" y="320" width="80" height="80" as="geometry" />
        </mxCell>
        <mxCell id="kZ3E673snCELfS5Q31nj-66" value="Game" style="whiteSpace=wrap;html=1;labelBackgroundColor=none;rounded=0;fillColor=#F2CC8F;strokeColor=#E07A5F;fontColor=#393C56;" parent="1" vertex="1">
          <mxGeometry x="880" y="480" width="160" height="80" as="geometry" />
        </mxCell>
        <mxCell id="kZ3E673snCELfS5Q31nj-67" value="" style="endArrow=none;html=1;edgeStyle=orthogonalEdgeStyle;rounded=0;exitX=0.5;exitY=1;exitDx=0;exitDy=0;entryX=0.5;entryY=0;entryDx=0;entryDy=0;labelBackgroundColor=none;fontColor=default;strokeColor=#E07A5F;" parent="1" source="kZ3E673snCELfS5Q31nj-62" target="kZ3E673snCELfS5Q31nj-66" edge="1">
          <mxGeometry relative="1" as="geometry">
            <mxPoint x="1090" y="410" as="sourcePoint" />
            <mxPoint x="1250" y="410" as="targetPoint" />
          </mxGeometry>
        </mxCell>
        <mxCell id="kZ3E673snCELfS5Q31nj-68" value="parent" style="edgeLabel;resizable=0;html=1;align=left;verticalAlign=bottom;labelBackgroundColor=none;rounded=0;fontColor=#393C56;" parent="kZ3E673snCELfS5Q31nj-67" connectable="0" vertex="1">
          <mxGeometry x="-1" relative="1" as="geometry">
            <mxPoint y="10" as="offset" />
          </mxGeometry>
        </mxCell>
        <mxCell id="kZ3E673snCELfS5Q31nj-69" value="child" style="edgeLabel;resizable=0;html=1;align=right;verticalAlign=bottom;labelBackgroundColor=none;rounded=0;fontColor=#393C56;" parent="kZ3E673snCELfS5Q31nj-67" connectable="0" vertex="1">
          <mxGeometry x="1" relative="1" as="geometry">
            <mxPoint x="30" as="offset" />
          </mxGeometry>
        </mxCell>
        <mxCell id="kZ3E673snCELfS5Q31nj-72" value="ItemDatabase" style="swimlane;whiteSpace=wrap;html=1;startSize=40;labelBackgroundColor=none;rounded=0;fillColor=#dae8fc;strokeColor=#6c8ebf;" parent="1" vertex="1">
          <mxGeometry x="1600" y="360" width="120" height="280" as="geometry">
            <mxRectangle x="1400" y="410" width="90" height="30" as="alternateBounds" />
          </mxGeometry>
        </mxCell>
        <mxCell id="wERcz5VRjjp3bPj3p1RH-54" value="list&amp;lt;Weapon&amp;gt;" style="whiteSpace=wrap;html=1;strokeColor=#6c8ebf;fillColor=#dae8fc;" vertex="1" parent="kZ3E673snCELfS5Q31nj-72">
          <mxGeometry x="20" y="60" width="80" height="40" as="geometry" />
        </mxCell>
        <mxCell id="wERcz5VRjjp3bPj3p1RH-56" value="list&amp;lt;Armor&amp;gt;" style="whiteSpace=wrap;html=1;strokeColor=#6c8ebf;fillColor=#dae8fc;" vertex="1" parent="kZ3E673snCELfS5Q31nj-72">
          <mxGeometry x="20" y="110" width="80" height="40" as="geometry" />
        </mxCell>
        <mxCell id="wERcz5VRjjp3bPj3p1RH-57" value="&lt;font style=&quot;font-size: 9px;&quot;&gt;list&amp;lt;Consumable&amp;gt;&lt;/font&gt;" style="whiteSpace=wrap;html=1;strokeColor=#6c8ebf;fillColor=#dae8fc;" vertex="1" parent="kZ3E673snCELfS5Q31nj-72">
          <mxGeometry x="20" y="160" width="80" height="40" as="geometry" />
        </mxCell>
        <mxCell id="wERcz5VRjjp3bPj3p1RH-109" value="&lt;font style=&quot;font-size: 10px;&quot;&gt;list&amp;lt;Resource&amp;gt;&lt;/font&gt;" style="whiteSpace=wrap;html=1;fillStyle=auto;strokeColor=#6c8ebf;align=center;verticalAlign=middle;fontFamily=Helvetica;fontSize=12;fontStyle=1;fillColor=#dae8fc;" vertex="1" parent="kZ3E673snCELfS5Q31nj-72">
          <mxGeometry x="20" y="210" width="80" height="40" as="geometry" />
        </mxCell>
        <mxCell id="kZ3E673snCELfS5Q31nj-102" value="Pawn" style="swimlane;whiteSpace=wrap;html=1;startSize=40;labelBackgroundColor=none;rounded=0;fillColor=#F2CC8F;strokeColor=#E07A5F;fontColor=#393C56;" parent="1" vertex="1">
          <mxGeometry x="840" y="920" width="200" height="200" as="geometry" />
        </mxCell>
        <mxCell id="wERcz5VRjjp3bPj3p1RH-38" value="Inventory*" style="whiteSpace=wrap;html=1;labelBackgroundColor=none;rounded=0;fillColor=#F2CC8F;strokeColor=#E07A5F;fontColor=#393C56;" vertex="1" parent="kZ3E673snCELfS5Q31nj-102">
          <mxGeometry x="60" y="61" width="80" height="40" as="geometry" />
        </mxCell>
        <mxCell id="wERcz5VRjjp3bPj3p1RH-4" value="Player" style="swimlane;startSize=40;labelBackgroundColor=none;rounded=0;fillColor=#F2CC8F;strokeColor=#E07A5F;fontColor=#393C56;" vertex="1" parent="1">
          <mxGeometry x="1080" y="1160" width="160" height="160" as="geometry" />
        </mxCell>
        <mxCell id="wERcz5VRjjp3bPj3p1RH-42" value="Move()" style="shape=delay;whiteSpace=wrap;html=1;labelBackgroundColor=none;fillColor=#F2CC8F;strokeColor=#E07A5F;fontColor=#393C56;" vertex="1" parent="wERcz5VRjjp3bPj3p1RH-4">
          <mxGeometry x="40" y="60" width="80" height="40" as="geometry" />
        </mxCell>
        <mxCell id="wERcz5VRjjp3bPj3p1RH-5" value="" style="endArrow=none;html=1;edgeStyle=orthogonalEdgeStyle;rounded=0;exitX=0.75;exitY=1;exitDx=0;exitDy=0;entryX=0.25;entryY=0;entryDx=0;entryDy=0;labelBackgroundColor=none;fontColor=default;strokeColor=#E07A5F;" edge="1" parent="1" source="kZ3E673snCELfS5Q31nj-102" target="wERcz5VRjjp3bPj3p1RH-4">
          <mxGeometry relative="1" as="geometry">
            <mxPoint x="1080" y="880" as="sourcePoint" />
            <mxPoint x="1240" y="880" as="targetPoint" />
          </mxGeometry>
        </mxCell>
        <mxCell id="wERcz5VRjjp3bPj3p1RH-6" value="parent" style="edgeLabel;resizable=0;html=1;align=left;verticalAlign=bottom;labelBackgroundColor=none;rounded=0;fontColor=#393C56;" connectable="0" vertex="1" parent="wERcz5VRjjp3bPj3p1RH-5">
          <mxGeometry x="-1" relative="1" as="geometry" />
        </mxCell>
        <mxCell id="wERcz5VRjjp3bPj3p1RH-7" value="child" style="edgeLabel;resizable=0;html=1;align=right;verticalAlign=bottom;labelBackgroundColor=none;rounded=0;fontColor=#393C56;" connectable="0" vertex="1" parent="wERcz5VRjjp3bPj3p1RH-5">
          <mxGeometry x="1" relative="1" as="geometry" />
        </mxCell>
        <mxCell id="wERcz5VRjjp3bPj3p1RH-8" value="Npc" style="swimlane;startSize=40;labelBackgroundColor=none;rounded=0;fillColor=#F2CC8F;strokeColor=#E07A5F;fontColor=#393C56;" vertex="1" parent="1">
          <mxGeometry x="680" y="1160" width="120" height="120" as="geometry" />
        </mxCell>
        <mxCell id="wERcz5VRjjp3bPj3p1RH-9" value="" style="endArrow=none;html=1;edgeStyle=orthogonalEdgeStyle;rounded=0;exitX=0.25;exitY=1;exitDx=0;exitDy=0;entryX=0.75;entryY=0;entryDx=0;entryDy=0;labelBackgroundColor=none;fontColor=default;strokeColor=#E07A5F;" edge="1" parent="1" source="kZ3E673snCELfS5Q31nj-102" target="wERcz5VRjjp3bPj3p1RH-8">
          <mxGeometry relative="1" as="geometry">
            <mxPoint x="710" y="880" as="sourcePoint" />
            <mxPoint x="870" y="880" as="targetPoint" />
          </mxGeometry>
        </mxCell>
        <mxCell id="wERcz5VRjjp3bPj3p1RH-10" value="parent" style="edgeLabel;resizable=0;html=1;align=left;verticalAlign=bottom;labelBackgroundColor=none;rounded=0;fontColor=#393C56;" connectable="0" vertex="1" parent="wERcz5VRjjp3bPj3p1RH-9">
          <mxGeometry x="-1" relative="1" as="geometry">
            <mxPoint x="-40" as="offset" />
          </mxGeometry>
        </mxCell>
        <mxCell id="wERcz5VRjjp3bPj3p1RH-11" value="child" style="edgeLabel;resizable=0;html=1;align=right;verticalAlign=bottom;labelBackgroundColor=none;rounded=0;fontColor=#393C56;" connectable="0" vertex="1" parent="wERcz5VRjjp3bPj3p1RH-9">
          <mxGeometry x="1" relative="1" as="geometry">
            <mxPoint x="30" as="offset" />
          </mxGeometry>
        </mxCell>
        <mxCell id="wERcz5VRjjp3bPj3p1RH-13" value="Inventory" style="swimlane;startSize=40;labelBackgroundColor=none;rounded=0;fillColor=#F2CC8F;strokeColor=#E07A5F;fontColor=#393C56;" vertex="1" parent="1">
          <mxGeometry x="1240" y="840" width="160" height="230" as="geometry">
            <mxRectangle x="880" y="690" width="90" height="40" as="alternateBounds" />
          </mxGeometry>
        </mxCell>
        <mxCell id="wERcz5VRjjp3bPj3p1RH-18" value="vector&amp;lt;Item&amp;gt;" style="whiteSpace=wrap;html=1;labelBackgroundColor=none;rounded=0;fillColor=#F2CC8F;strokeColor=#E07A5F;fontColor=#393C56;" vertex="1" parent="wERcz5VRjjp3bPj3p1RH-13">
          <mxGeometry x="40" y="60" width="80" height="40" as="geometry" />
        </mxCell>
        <mxCell id="wERcz5VRjjp3bPj3p1RH-62" value="Switch&lt;div&gt;Equipement()&lt;/div&gt;" style="shape=delay;whiteSpace=wrap;html=1;strokeColor=#E07A5F;fontColor=#393C56;fillColor=#F2CC8F;" vertex="1" parent="wERcz5VRjjp3bPj3p1RH-13">
          <mxGeometry x="40" y="110" width="80" height="40" as="geometry" />
        </mxCell>
        <mxCell id="wERcz5VRjjp3bPj3p1RH-20" value="Weapon" style="whiteSpace=wrap;html=1;labelBackgroundColor=none;rounded=0;fillColor=#F2CC8F;strokeColor=#E07A5F;fontColor=#393C56;" vertex="1" parent="1">
          <mxGeometry x="1440" y="600" width="80" height="40" as="geometry" />
        </mxCell>
        <mxCell id="wERcz5VRjjp3bPj3p1RH-21" value="Armor" style="whiteSpace=wrap;html=1;labelBackgroundColor=none;rounded=0;fillColor=#F2CC8F;strokeColor=#E07A5F;fontColor=#393C56;" vertex="1" parent="1">
          <mxGeometry x="1440" y="661" width="80" height="38" as="geometry" />
        </mxCell>
        <mxCell id="wERcz5VRjjp3bPj3p1RH-22" value="Consumable" style="whiteSpace=wrap;html=1;labelBackgroundColor=none;rounded=0;fillColor=#F2CC8F;strokeColor=#E07A5F;fontColor=#393C56;" vertex="1" parent="1">
          <mxGeometry x="1440" y="722" width="80" height="40" as="geometry" />
        </mxCell>
        <mxCell id="wERcz5VRjjp3bPj3p1RH-23" value="Item" style="rhombus;whiteSpace=wrap;html=1;labelBackgroundColor=none;rounded=0;fillColor=#F2CC8F;strokeColor=#E07A5F;fontColor=#393C56;" vertex="1" parent="1">
          <mxGeometry x="1280" y="640" width="80" height="80" as="geometry" />
        </mxCell>
        <mxCell id="wERcz5VRjjp3bPj3p1RH-25" value="" style="endArrow=none;html=1;edgeStyle=orthogonalEdgeStyle;rounded=0;exitX=1;exitY=0;exitDx=0;exitDy=0;entryX=0;entryY=0.5;entryDx=0;entryDy=0;labelBackgroundColor=none;fontColor=default;strokeColor=#E07A5F;" edge="1" parent="1" source="wERcz5VRjjp3bPj3p1RH-23" target="wERcz5VRjjp3bPj3p1RH-20">
          <mxGeometry relative="1" as="geometry">
            <mxPoint x="1380" y="630" as="sourcePoint" />
            <mxPoint x="1520" y="610" as="targetPoint" />
          </mxGeometry>
        </mxCell>
        <mxCell id="wERcz5VRjjp3bPj3p1RH-26" value="parent" style="edgeLabel;resizable=0;html=1;align=left;verticalAlign=bottom;labelBackgroundColor=none;rounded=0;fontColor=#393C56;" connectable="0" vertex="1" parent="wERcz5VRjjp3bPj3p1RH-25">
          <mxGeometry x="-1" relative="1" as="geometry" />
        </mxCell>
        <mxCell id="wERcz5VRjjp3bPj3p1RH-27" value="child" style="edgeLabel;resizable=0;html=1;align=right;verticalAlign=bottom;labelBackgroundColor=none;rounded=0;fontColor=#393C56;" connectable="0" vertex="1" parent="wERcz5VRjjp3bPj3p1RH-25">
          <mxGeometry x="1" relative="1" as="geometry" />
        </mxCell>
        <mxCell id="wERcz5VRjjp3bPj3p1RH-28" value="" style="endArrow=none;html=1;edgeStyle=orthogonalEdgeStyle;rounded=0;exitX=1;exitY=0.5;exitDx=0;exitDy=0;entryX=0;entryY=0.5;entryDx=0;entryDy=0;labelBackgroundColor=none;fontColor=default;strokeColor=#E07A5F;" edge="1" parent="1" source="wERcz5VRjjp3bPj3p1RH-23" target="wERcz5VRjjp3bPj3p1RH-21">
          <mxGeometry relative="1" as="geometry">
            <mxPoint x="1360" y="720" as="sourcePoint" />
            <mxPoint x="1520" y="720" as="targetPoint" />
          </mxGeometry>
        </mxCell>
        <mxCell id="wERcz5VRjjp3bPj3p1RH-29" value="parent" style="edgeLabel;resizable=0;html=1;align=left;verticalAlign=bottom;labelBackgroundColor=none;rounded=0;fontColor=#393C56;" connectable="0" vertex="1" parent="wERcz5VRjjp3bPj3p1RH-28">
          <mxGeometry x="-1" relative="1" as="geometry" />
        </mxCell>
        <mxCell id="wERcz5VRjjp3bPj3p1RH-30" value="child" style="edgeLabel;resizable=0;html=1;align=right;verticalAlign=bottom;labelBackgroundColor=none;rounded=0;fontColor=#393C56;" connectable="0" vertex="1" parent="wERcz5VRjjp3bPj3p1RH-28">
          <mxGeometry x="1" relative="1" as="geometry" />
        </mxCell>
        <mxCell id="wERcz5VRjjp3bPj3p1RH-31" value="" style="endArrow=none;html=1;edgeStyle=orthogonalEdgeStyle;rounded=0;exitX=1;exitY=1;exitDx=0;exitDy=0;entryX=0;entryY=0.5;entryDx=0;entryDy=0;labelBackgroundColor=none;fontColor=default;strokeColor=#E07A5F;" edge="1" parent="1" source="wERcz5VRjjp3bPj3p1RH-23" target="wERcz5VRjjp3bPj3p1RH-22">
          <mxGeometry relative="1" as="geometry">
            <mxPoint x="1370" y="780" as="sourcePoint" />
            <mxPoint x="1530" y="780" as="targetPoint" />
          </mxGeometry>
        </mxCell>
        <mxCell id="wERcz5VRjjp3bPj3p1RH-32" value="parent" style="edgeLabel;resizable=0;html=1;align=left;verticalAlign=bottom;labelBackgroundColor=none;rounded=0;fontColor=#393C56;" connectable="0" vertex="1" parent="wERcz5VRjjp3bPj3p1RH-31">
          <mxGeometry x="-1" relative="1" as="geometry" />
        </mxCell>
        <mxCell id="wERcz5VRjjp3bPj3p1RH-33" value="child" style="edgeLabel;resizable=0;html=1;align=right;verticalAlign=bottom;labelBackgroundColor=none;rounded=0;fontColor=#393C56;" connectable="0" vertex="1" parent="wERcz5VRjjp3bPj3p1RH-31">
          <mxGeometry x="1" relative="1" as="geometry" />
        </mxCell>
        <mxCell id="wERcz5VRjjp3bPj3p1RH-40" value="" style="endArrow=diamondThin;endFill=0;endSize=24;html=1;rounded=0;entryX=1;entryY=0.5;entryDx=0;entryDy=0;labelBackgroundColor=none;fontColor=default;strokeColor=#E07A5F;exitX=0;exitY=0.25;exitDx=0;exitDy=0;" edge="1" parent="1" source="wERcz5VRjjp3bPj3p1RH-13" target="wERcz5VRjjp3bPj3p1RH-38">
          <mxGeometry width="160" relative="1" as="geometry">
            <mxPoint x="870" y="710" as="sourcePoint" />
            <mxPoint x="840" y="870" as="targetPoint" />
          </mxGeometry>
        </mxCell>
        <mxCell id="wERcz5VRjjp3bPj3p1RH-50" value="" style="endArrow=diamondThin;endFill=1;endSize=24;html=1;rounded=0;strokeColor=#E07A5F;fontColor=#393C56;fillColor=#F2CC8F;exitX=0.5;exitY=0;exitDx=0;exitDy=0;entryX=0.5;entryY=1;entryDx=0;entryDy=0;" edge="1" parent="1" source="kZ3E673snCELfS5Q31nj-102" target="wERcz5VRjjp3bPj3p1RH-72">
          <mxGeometry width="160" relative="1" as="geometry">
            <mxPoint x="990" y="880" as="sourcePoint" />
            <mxPoint x="966.0000000000002" y="866" as="targetPoint" />
          </mxGeometry>
        </mxCell>
        <mxCell id="wERcz5VRjjp3bPj3p1RH-51" value="" style="endArrow=diamondThin;endFill=1;endSize=24;html=1;rounded=0;strokeColor=#E07A5F;fontColor=#393C56;fillColor=#F2CC8F;exitX=0;exitY=0;exitDx=0;exitDy=0;entryX=0.96;entryY=0.7;entryDx=0;entryDy=0;entryPerimeter=0;" edge="1" parent="1" source="kZ3E673snCELfS5Q31nj-62" target="kZ3E673snCELfS5Q31nj-60">
          <mxGeometry width="160" relative="1" as="geometry">
            <mxPoint x="900" y="280" as="sourcePoint" />
            <mxPoint x="1060" y="280" as="targetPoint" />
          </mxGeometry>
        </mxCell>
        <mxCell id="wERcz5VRjjp3bPj3p1RH-52" value="" style="endArrow=diamondThin;endFill=0;endSize=24;html=1;rounded=0;strokeColor=#E07A5F;fontColor=#393C56;fillColor=#F2CC8F;exitX=0;exitY=0.5;exitDx=0;exitDy=0;entryX=1;entryY=0.5;entryDx=0;entryDy=0;" edge="1" parent="1" source="kZ3E673snCELfS5Q31nj-12" target="kZ3E673snCELfS5Q31nj-2">
          <mxGeometry width="160" relative="1" as="geometry">
            <mxPoint x="1110" y="90" as="sourcePoint" />
            <mxPoint x="1270" y="90" as="targetPoint" />
          </mxGeometry>
        </mxCell>
        <mxCell id="wERcz5VRjjp3bPj3p1RH-53" value="Transform&lt;div&gt;Component&lt;/div&gt;" style="whiteSpace=wrap;html=1;strokeColor=#E07A5F;fontColor=#393C56;fillColor=#F2CC8F;" vertex="1" parent="1">
          <mxGeometry x="1680" y="40" width="80" height="40" as="geometry" />
        </mxCell>
        <mxCell id="wERcz5VRjjp3bPj3p1RH-55" style="edgeStyle=orthogonalEdgeStyle;rounded=0;orthogonalLoop=1;jettySize=auto;html=1;exitX=0;exitY=0.5;exitDx=0;exitDy=0;entryX=1;entryY=0.5;entryDx=0;entryDy=0;strokeColor=#E07A5F;fontColor=#393C56;fillColor=#F2CC8F;" edge="1" parent="1" source="wERcz5VRjjp3bPj3p1RH-54" target="wERcz5VRjjp3bPj3p1RH-20">
          <mxGeometry relative="1" as="geometry" />
        </mxCell>
        <mxCell id="wERcz5VRjjp3bPj3p1RH-58" style="edgeStyle=orthogonalEdgeStyle;rounded=0;orthogonalLoop=1;jettySize=auto;html=1;exitX=0;exitY=0.5;exitDx=0;exitDy=0;entryX=1;entryY=0.5;entryDx=0;entryDy=0;strokeColor=#E07A5F;fontColor=#393C56;fillColor=#F2CC8F;" edge="1" parent="1" source="wERcz5VRjjp3bPj3p1RH-56" target="wERcz5VRjjp3bPj3p1RH-21">
          <mxGeometry relative="1" as="geometry" />
        </mxCell>
        <mxCell id="wERcz5VRjjp3bPj3p1RH-59" style="edgeStyle=orthogonalEdgeStyle;rounded=0;orthogonalLoop=1;jettySize=auto;html=1;exitX=0;exitY=0.5;exitDx=0;exitDy=0;entryX=1;entryY=0.5;entryDx=0;entryDy=0;strokeColor=#E07A5F;fontColor=#393C56;fillColor=#F2CC8F;" edge="1" parent="1" source="wERcz5VRjjp3bPj3p1RH-57" target="wERcz5VRjjp3bPj3p1RH-22">
          <mxGeometry relative="1" as="geometry" />
        </mxCell>
        <mxCell id="wERcz5VRjjp3bPj3p1RH-61" value="" style="endArrow=diamondThin;endFill=0;endSize=24;html=1;rounded=0;strokeColor=#E07A5F;fontColor=#393C56;fillColor=#F2CC8F;exitX=0.5;exitY=1;exitDx=0;exitDy=0;entryX=0.5;entryY=0;entryDx=0;entryDy=0;" edge="1" parent="1" source="wERcz5VRjjp3bPj3p1RH-23" target="wERcz5VRjjp3bPj3p1RH-18">
          <mxGeometry width="160" relative="1" as="geometry">
            <mxPoint x="1160" y="750" as="sourcePoint" />
            <mxPoint x="1320" y="750" as="targetPoint" />
          </mxGeometry>
        </mxCell>
        <mxCell id="wERcz5VRjjp3bPj3p1RH-71" value="PawnManager" style="swimlane;strokeColor=#6c8ebf;fillColor=#dae8fc;startSize=40;" vertex="1" parent="1">
          <mxGeometry x="880" y="680" width="160" height="120" as="geometry" />
        </mxCell>
        <mxCell id="wERcz5VRjjp3bPj3p1RH-72" value="vector&amp;lt;Pawn&amp;gt;" style="whiteSpace=wrap;html=1;strokeColor=#6c8ebf;align=center;verticalAlign=middle;fontFamily=Helvetica;fontSize=12;fontStyle=1;fillColor=#dae8fc;" vertex="1" parent="wERcz5VRjjp3bPj3p1RH-71">
          <mxGeometry x="40" y="60" width="80" height="40" as="geometry" />
        </mxCell>
        <mxCell id="wERcz5VRjjp3bPj3p1RH-74" value="" style="endArrow=diamondThin;endFill=0;endSize=24;html=1;rounded=0;strokeColor=#E07A5F;fontFamily=Helvetica;fontSize=12;fontColor=#393C56;fontStyle=1;fillColor=#F2CC8F;exitX=0.5;exitY=0;exitDx=0;exitDy=0;entryX=0.5;entryY=1;entryDx=0;entryDy=0;" edge="1" parent="1" source="wERcz5VRjjp3bPj3p1RH-71" target="kZ3E673snCELfS5Q31nj-66">
          <mxGeometry width="160" relative="1" as="geometry">
            <mxPoint x="640" y="470" as="sourcePoint" />
            <mxPoint x="800" y="470" as="targetPoint" />
          </mxGeometry>
        </mxCell>
        <mxCell id="wERcz5VRjjp3bPj3p1RH-78" value="DialogueDatabase" style="swimlane;strokeColor=#6c8ebf;align=center;verticalAlign=middle;fontFamily=Helvetica;fontSize=12;fontStyle=1;fillColor=#dae8fc;startSize=40;fillStyle=auto;" vertex="1" parent="1">
          <mxGeometry x="440" y="360" width="160" height="140" as="geometry" />
        </mxCell>
        <mxCell id="wERcz5VRjjp3bPj3p1RH-79" value="vector&amp;lt;Dialogue&amp;gt;" style="whiteSpace=wrap;html=1;fillStyle=auto;strokeColor=#6c8ebf;align=center;verticalAlign=middle;fontFamily=Helvetica;fontSize=12;fontColor=default;fontStyle=1;fillColor=#dae8fc;" vertex="1" parent="wERcz5VRjjp3bPj3p1RH-78">
          <mxGeometry x="20" y="60" width="120" height="60" as="geometry" />
        </mxCell>
        <mxCell id="wERcz5VRjjp3bPj3p1RH-81" value="Dialogue" style="rhombus;whiteSpace=wrap;html=1;fillStyle=auto;strokeColor=#d79b00;align=center;verticalAlign=middle;fontFamily=Helvetica;fontSize=12;fontStyle=1;fillColor=#ffe6cc;" vertex="1" parent="1">
          <mxGeometry x="280" y="520" width="80" height="80" as="geometry" />
        </mxCell>
        <mxCell id="wERcz5VRjjp3bPj3p1RH-82" value="Question" style="whiteSpace=wrap;html=1;fillStyle=auto;strokeColor=#d79b00;align=center;verticalAlign=middle;fontFamily=Helvetica;fontSize=12;fontColor=default;fontStyle=1;fillColor=#ffe6cc;" vertex="1" parent="1">
          <mxGeometry x="120" y="440" width="80" height="40" as="geometry" />
        </mxCell>
        <mxCell id="wERcz5VRjjp3bPj3p1RH-83" value="Answer" style="whiteSpace=wrap;html=1;fillStyle=auto;strokeColor=#d79b00;align=center;verticalAlign=middle;fontFamily=Helvetica;fontSize=12;fontColor=default;fontStyle=1;fillColor=#ffe6cc;" vertex="1" parent="1">
          <mxGeometry x="120" y="510" width="80" height="40" as="geometry" />
        </mxCell>
        <mxCell id="wERcz5VRjjp3bPj3p1RH-84" value="Comment" style="whiteSpace=wrap;html=1;fillStyle=auto;strokeColor=#d79b00;align=center;verticalAlign=middle;fontFamily=Helvetica;fontSize=12;fontColor=default;fontStyle=1;fillColor=#ffe6cc;" vertex="1" parent="1">
          <mxGeometry x="120" y="580" width="80" height="40" as="geometry" />
        </mxCell>
        <mxCell id="wERcz5VRjjp3bPj3p1RH-85" value="EndButton" style="whiteSpace=wrap;html=1;fillStyle=auto;strokeColor=#d79b00;align=center;verticalAlign=middle;fontFamily=Helvetica;fontSize=12;fontColor=default;fontStyle=1;fillColor=#ffe6cc;" vertex="1" parent="1">
          <mxGeometry x="120" y="650" width="80" height="40" as="geometry" />
        </mxCell>
        <mxCell id="wERcz5VRjjp3bPj3p1RH-88" value="" style="endArrow=none;html=1;edgeStyle=orthogonalEdgeStyle;rounded=0;strokeColor=#E07A5F;fontFamily=Helvetica;fontSize=12;fontColor=default;fontStyle=1;fillColor=#F2CC8F;exitX=0.5;exitY=0;exitDx=0;exitDy=0;entryX=1;entryY=0.5;entryDx=0;entryDy=0;" edge="1" parent="1" source="wERcz5VRjjp3bPj3p1RH-81" target="wERcz5VRjjp3bPj3p1RH-82">
          <mxGeometry relative="1" as="geometry">
            <mxPoint x="400" y="400" as="sourcePoint" />
            <mxPoint x="560" y="400" as="targetPoint" />
          </mxGeometry>
        </mxCell>
        <mxCell id="wERcz5VRjjp3bPj3p1RH-89" value="parent" style="edgeLabel;resizable=0;html=1;align=left;verticalAlign=bottom;fillStyle=auto;strokeColor=#d79b00;fontFamily=Helvetica;fontSize=12;fontColor=default;fontStyle=1;fillColor=#ffe6cc;" connectable="0" vertex="1" parent="wERcz5VRjjp3bPj3p1RH-88">
          <mxGeometry x="-1" relative="1" as="geometry">
            <mxPoint as="offset" />
          </mxGeometry>
        </mxCell>
        <mxCell id="wERcz5VRjjp3bPj3p1RH-90" value="child" style="edgeLabel;resizable=0;html=1;align=right;verticalAlign=bottom;fillStyle=auto;strokeColor=#d79b00;fontFamily=Helvetica;fontSize=12;fontColor=default;fontStyle=1;fillColor=#ffe6cc;" connectable="0" vertex="1" parent="wERcz5VRjjp3bPj3p1RH-88">
          <mxGeometry x="1" relative="1" as="geometry">
            <mxPoint x="30" as="offset" />
          </mxGeometry>
        </mxCell>
        <mxCell id="wERcz5VRjjp3bPj3p1RH-91" value="" style="endArrow=none;html=1;edgeStyle=orthogonalEdgeStyle;rounded=0;strokeColor=#E07A5F;fontFamily=Helvetica;fontSize=12;fontColor=default;fontStyle=1;fillColor=#F2CC8F;exitX=0;exitY=0;exitDx=0;exitDy=0;entryX=1;entryY=0.5;entryDx=0;entryDy=0;" edge="1" parent="1" source="wERcz5VRjjp3bPj3p1RH-81" target="wERcz5VRjjp3bPj3p1RH-83">
          <mxGeometry relative="1" as="geometry">
            <mxPoint x="300" y="570" as="sourcePoint" />
            <mxPoint x="460" y="570" as="targetPoint" />
          </mxGeometry>
        </mxCell>
        <mxCell id="wERcz5VRjjp3bPj3p1RH-92" value="parent" style="edgeLabel;resizable=0;html=1;align=left;verticalAlign=bottom;fillStyle=auto;strokeColor=#d79b00;fontFamily=Helvetica;fontSize=12;fontColor=default;fontStyle=1;fillColor=#ffe6cc;" connectable="0" vertex="1" parent="wERcz5VRjjp3bPj3p1RH-91">
          <mxGeometry x="-1" relative="1" as="geometry">
            <mxPoint x="-40" y="60" as="offset" />
          </mxGeometry>
        </mxCell>
        <mxCell id="wERcz5VRjjp3bPj3p1RH-93" value="child" style="edgeLabel;resizable=0;html=1;align=right;verticalAlign=bottom;fillStyle=auto;strokeColor=#d79b00;fontFamily=Helvetica;fontSize=12;fontColor=default;fontStyle=1;fillColor=#ffe6cc;" connectable="0" vertex="1" parent="wERcz5VRjjp3bPj3p1RH-91">
          <mxGeometry x="1" relative="1" as="geometry">
            <mxPoint x="30" as="offset" />
          </mxGeometry>
        </mxCell>
        <mxCell id="wERcz5VRjjp3bPj3p1RH-94" value="" style="endArrow=none;html=1;edgeStyle=orthogonalEdgeStyle;rounded=0;strokeColor=#E07A5F;fontFamily=Helvetica;fontSize=12;fontColor=default;fontStyle=1;fillColor=#F2CC8F;exitX=0;exitY=1;exitDx=0;exitDy=0;entryX=1;entryY=0.5;entryDx=0;entryDy=0;" edge="1" parent="1" source="wERcz5VRjjp3bPj3p1RH-81" target="wERcz5VRjjp3bPj3p1RH-84">
          <mxGeometry relative="1" as="geometry">
            <mxPoint x="300" y="610" as="sourcePoint" />
            <mxPoint x="460" y="610" as="targetPoint" />
          </mxGeometry>
        </mxCell>
        <mxCell id="wERcz5VRjjp3bPj3p1RH-95" value="parent" style="edgeLabel;resizable=0;html=1;align=left;verticalAlign=bottom;fillStyle=auto;strokeColor=#d79b00;fontFamily=Helvetica;fontSize=12;fontColor=default;fontStyle=1;fillColor=#ffe6cc;" connectable="0" vertex="1" parent="wERcz5VRjjp3bPj3p1RH-94">
          <mxGeometry x="-1" relative="1" as="geometry">
            <mxPoint x="-40" y="-40" as="offset" />
          </mxGeometry>
        </mxCell>
        <mxCell id="wERcz5VRjjp3bPj3p1RH-96" value="child" style="edgeLabel;resizable=0;html=1;align=right;verticalAlign=bottom;fillStyle=auto;strokeColor=#d79b00;fontFamily=Helvetica;fontSize=12;fontColor=default;fontStyle=1;fillColor=#ffe6cc;" connectable="0" vertex="1" parent="wERcz5VRjjp3bPj3p1RH-94">
          <mxGeometry x="1" relative="1" as="geometry">
            <mxPoint x="30" y="21" as="offset" />
          </mxGeometry>
        </mxCell>
        <mxCell id="wERcz5VRjjp3bPj3p1RH-97" value="" style="endArrow=none;html=1;edgeStyle=orthogonalEdgeStyle;rounded=0;strokeColor=#E07A5F;fontFamily=Helvetica;fontSize=12;fontColor=default;fontStyle=1;fillColor=#F2CC8F;exitX=0.5;exitY=1;exitDx=0;exitDy=0;entryX=1;entryY=0.5;entryDx=0;entryDy=0;" edge="1" parent="1" source="wERcz5VRjjp3bPj3p1RH-81" target="wERcz5VRjjp3bPj3p1RH-85">
          <mxGeometry relative="1" as="geometry">
            <mxPoint x="330" y="640" as="sourcePoint" />
            <mxPoint x="490" y="640" as="targetPoint" />
          </mxGeometry>
        </mxCell>
        <mxCell id="wERcz5VRjjp3bPj3p1RH-98" value="parent" style="edgeLabel;resizable=0;html=1;align=left;verticalAlign=bottom;fillStyle=auto;strokeColor=#d79b00;fontFamily=Helvetica;fontSize=12;fontColor=default;fontStyle=1;fillColor=#ffe6cc;" connectable="0" vertex="1" parent="wERcz5VRjjp3bPj3p1RH-97">
          <mxGeometry x="-1" relative="1" as="geometry">
            <mxPoint y="20" as="offset" />
          </mxGeometry>
        </mxCell>
        <mxCell id="wERcz5VRjjp3bPj3p1RH-99" value="child" style="edgeLabel;resizable=0;html=1;align=right;verticalAlign=bottom;fillStyle=auto;strokeColor=#d79b00;fontFamily=Helvetica;fontSize=12;fontColor=default;fontStyle=1;fillColor=#ffe6cc;" connectable="0" vertex="1" parent="wERcz5VRjjp3bPj3p1RH-97">
          <mxGeometry x="1" relative="1" as="geometry">
            <mxPoint x="30" y="20" as="offset" />
          </mxGeometry>
        </mxCell>
        <mxCell id="wERcz5VRjjp3bPj3p1RH-101" style="edgeStyle=orthogonalEdgeStyle;rounded=0;orthogonalLoop=1;jettySize=auto;html=1;exitX=0;exitY=0.5;exitDx=0;exitDy=0;entryX=1;entryY=0.5;entryDx=0;entryDy=0;strokeColor=#E07A5F;fontFamily=Helvetica;fontSize=12;fontColor=default;fontStyle=1;fillColor=#F2CC8F;" edge="1" parent="1" source="wERcz5VRjjp3bPj3p1RH-79" target="wERcz5VRjjp3bPj3p1RH-81">
          <mxGeometry relative="1" as="geometry" />
        </mxCell>
        <mxCell id="wERcz5VRjjp3bPj3p1RH-105" value="Resource" style="whiteSpace=wrap;html=1;fillStyle=auto;align=center;verticalAlign=middle;fontFamily=Helvetica;fontSize=12;fontStyle=1;fillColor=#ffe6cc;strokeColor=#d79b00;" vertex="1" parent="1">
          <mxGeometry x="1600" y="790" width="120" height="80" as="geometry" />
        </mxCell>
        <mxCell id="wERcz5VRjjp3bPj3p1RH-110" style="edgeStyle=orthogonalEdgeStyle;rounded=0;orthogonalLoop=1;jettySize=auto;html=1;exitX=0.5;exitY=1;exitDx=0;exitDy=0;entryX=0.5;entryY=0;entryDx=0;entryDy=0;strokeColor=#E07A5F;fontFamily=Helvetica;fontSize=12;fontColor=default;fontStyle=1;fillColor=#F2CC8F;" edge="1" parent="1" source="wERcz5VRjjp3bPj3p1RH-109" target="wERcz5VRjjp3bPj3p1RH-105">
          <mxGeometry relative="1" as="geometry" />
        </mxCell>
        <mxCell id="wERcz5VRjjp3bPj3p1RH-111" value="TODO&lt;div&gt;SYSTEM&lt;/div&gt;&lt;div&gt;CRAFT&lt;/div&gt;" style="whiteSpace=wrap;html=1;fillStyle=auto;strokeColor=#82b366;align=center;verticalAlign=middle;fontFamily=Helvetica;fontSize=12;fontStyle=1;fillColor=#d5e8d4;" vertex="1" parent="1">
          <mxGeometry x="1880" y="560" width="160" height="80" as="geometry" />
        </mxCell>
        <mxCell id="wERcz5VRjjp3bPj3p1RH-112" value="TODO&lt;div&gt;SYSTEM&lt;/div&gt;&lt;div&gt;INTERACTION&lt;/div&gt;&lt;div&gt;PLAYER - NPC&lt;/div&gt;" style="whiteSpace=wrap;html=1;fillStyle=auto;strokeColor=#82b366;align=center;verticalAlign=middle;fontFamily=Helvetica;fontSize=12;fontStyle=1;fillColor=#d5e8d4;" vertex="1" parent="1">
          <mxGeometry x="560" y="600" width="160" height="80" as="geometry" />
        </mxCell>
        <mxCell id="wERcz5VRjjp3bPj3p1RH-113" value="" style="endArrow=none;html=1;edgeStyle=orthogonalEdgeStyle;rounded=0;strokeColor=#E07A5F;fontFamily=Helvetica;fontSize=12;fontColor=default;fontStyle=1;fillColor=#F2CC8F;entryX=0;entryY=0.5;entryDx=0;entryDy=0;exitX=1;exitY=1;exitDx=0;exitDy=0;" edge="1" parent="1" source="wERcz5VRjjp3bPj3p1RH-23" target="wERcz5VRjjp3bPj3p1RH-105">
          <mxGeometry relative="1" as="geometry">
            <mxPoint x="1350" y="790" as="sourcePoint" />
            <mxPoint x="1550" y="810" as="targetPoint" />
            <Array as="points">
              <mxPoint x="1340" y="820" />
            </Array>
          </mxGeometry>
        </mxCell>
        <mxCell id="wERcz5VRjjp3bPj3p1RH-114" value="parent" style="edgeLabel;resizable=0;html=1;align=left;verticalAlign=bottom;fillStyle=auto;strokeColor=#d79b00;fontFamily=Helvetica;fontSize=12;fontColor=default;fontStyle=1;fillColor=#ffe6cc;" connectable="0" vertex="1" parent="wERcz5VRjjp3bPj3p1RH-113">
          <mxGeometry x="-1" relative="1" as="geometry">
            <mxPoint y="20" as="offset" />
          </mxGeometry>
        </mxCell>
        <mxCell id="wERcz5VRjjp3bPj3p1RH-115" value="child" style="edgeLabel;resizable=0;html=1;align=right;verticalAlign=bottom;fillStyle=auto;strokeColor=#d79b00;fontFamily=Helvetica;fontSize=12;fontColor=default;fontStyle=1;fillColor=#ffe6cc;" connectable="0" vertex="1" parent="wERcz5VRjjp3bPj3p1RH-113">
          <mxGeometry x="1" relative="1" as="geometry">
            <mxPoint y="-10" as="offset" />
          </mxGeometry>
        </mxCell>
      </root>
    </mxGraphModel>
  </diagram>
</mxfile>
